<svg xmlns="http://www.w3.org/2000/svg" viewBox="0 0 1200 800" role="img" aria-labelledby="stageTitle stageDesc">
  <title id="stageTitle">Swing The Boogie on a festival stage</title>
  <desc id="stageDesc">Abstract depiction of a swing band performing under bright lights with a cheering audience silhouette.</desc>
  <defs>
    <linearGradient id="stageGradient" x1="0" x2="0" y1="0" y2="1">
      <stop offset="0%" stop-color="#d7263d" stop-opacity="0.85" />
      <stop offset="100%" stop-color="#050505" stop-opacity="0.95" />
    </linearGradient>
  </defs>
  <rect width="1200" height="800" fill="#050505" />
  <rect x="60" y="80" width="1080" height="560" rx="48" fill="url(#stageGradient)" />
  <g fill="#f5f5f5" opacity="0.25">
    <circle cx="300" cy="200" r="90" />
    <circle cx="900" cy="220" r="110" />
  </g>
  <g fill="#f5f5f5" opacity="0.85">
    <path d="M160 620 Q260 440 200 320 L280 260 L360 480 Q350 620 260 720 Z" />
    <path d="M420 640 Q500 420 460 280 L560 240 L640 460 Q620 600 540 740 Z" />
    <path d="M700 660 Q760 420 720 280 L820 240 L900 470 Q880 620 800 760 Z" />
    <path d="M940 640 Q1000 420 960 280 L1050 250 L1130 470 Q1110 620 1020 760 Z" />
  </g>
  <rect y="640" width="1200" height="160" fill="#080808" />
  <g fill="#d7263d" opacity="0.6">
    <circle cx="220" cy="700" r="36" />
    <circle cx="420" cy="720" r="32" />
    <circle cx="980" cy="720" r="38" />
  </g>
</svg>
